<svg data-v-423bf9ae="" xmlns="http://www.w3.org/2000/svg" viewBox="0 0 224.6872752371055 60" class="font"><!----><!----><!----><g data-v-423bf9ae="" id="51ec5169-9b1e-49fa-8d6f-70fa47dc830e" fill="white" transform="matrix(4.4776120677666755,0,0,4.4776120677666755,-4.073922740311815,-21.313433513739128)"><path d="M7.27 13.50C7.13 13.59 6.99 13.62 6.87 13.62C6.58 13.62 6.50 13.43 6.26 13.02L5.89 12.40C5.63 11.97 5.38 11.66 5.03 11.59C6.05 11.10 7.04 10.30 7.04 9.14C7.04 8.32 6.55 7.59 5.26 7.59C4.02 7.59 3.21 8.25 2.79 9.25L2.80 8.64C2.86 7.43 2.77 6.86 3.09 5.18C2.94 5.04 2.56 4.76 2.00 4.76C1.37 4.76 0.90 5.12 0.91 5.75L0.91 14.14C0.91 14.74 1.09 15.23 1.97 15.23C2.59 15.23 2.91 14.99 3.14 14.81C2.83 14.11 2.81 13.71 2.81 12.21C3.11 12.17 3.39 12.10 3.75 12.00L4.62 14.10C4.93 14.90 5.50 15.23 6.13 15.23C6.93 15.23 7.52 14.73 7.52 14.13C7.52 13.92 7.45 13.69 7.27 13.50ZM2.81 11.52C2.81 9.90 3.56 8.54 4.49 8.54C4.83 8.54 5.08 8.72 5.08 9.27C5.08 10.44 3.85 11.21 2.81 11.52ZM11.58 15.22C13.76 15.22 15.04 13.80 15.04 11.41C15.04 9.00 13.76 7.59 11.58 7.59C9.39 7.59 8.12 9.00 8.12 11.41C8.12 13.80 9.39 15.22 11.58 15.22ZM11.58 14.57C10.61 14.57 10.18 13.51 10.18 11.41C10.18 9.30 10.61 8.23 11.58 8.23C12.53 8.23 12.96 9.30 12.96 11.41C12.96 13.51 12.53 14.57 11.58 14.57ZM26.85 12.98L26.85 10.39C26.85 8.54 26.15 7.59 24.72 7.59C23.60 7.59 22.88 8.23 22.54 9.21C22.29 8.15 21.67 7.59 20.55 7.59C19.35 7.59 18.66 8.25 18.33 9.28C18.26 8.13 17.72 7.59 16.88 7.59C16.16 7.59 15.72 8.02 15.72 8.61C15.72 8.82 15.78 9.02 15.90 9.21C15.99 9.07 16.17 9.02 16.28 9.02C16.53 9.02 16.67 9.24 16.67 9.76L16.69 14.14C16.69 14.81 17.16 15.23 17.79 15.23C18.40 15.23 18.73 14.97 18.90 14.81C18.58 14.06 18.58 13.55 18.58 11.76C18.58 9.55 19.12 8.47 19.89 8.47C20.66 8.47 20.82 9.28 20.82 10.70L20.82 14.24C20.82 14.85 21.28 15.23 21.88 15.23C22.39 15.23 22.71 15.02 22.96 14.80C22.72 14.18 22.68 13.40 22.68 12.98L22.68 11.69C22.69 9.55 23.35 8.47 24.09 8.47C24.88 8.47 24.92 9.52 24.92 10.70L24.92 14.24C24.92 14.85 25.40 15.23 26.03 15.23C26.53 15.23 26.88 15.02 27.13 14.80C26.89 14.18 26.85 13.40 26.85 12.98ZM31.64 15.22C33.82 15.22 35.10 13.80 35.10 11.41C35.10 9.00 33.82 7.59 31.64 7.59C29.46 7.59 28.18 9.00 28.18 11.41C28.18 13.80 29.46 15.22 31.64 15.22ZM31.64 14.57C30.67 14.57 30.24 13.51 30.24 11.41C30.24 9.30 30.67 8.23 31.64 8.23C32.59 8.23 33.03 9.30 33.03 11.41C33.03 13.51 32.59 14.57 31.64 14.57ZM38.78 18.16C40.92 18.16 42.50 17.19 42.50 14.41L42.50 8.51C41.82 7.94 40.71 7.59 39.49 7.59C36.97 7.59 36.05 9.24 36.05 11.54C36.05 14.07 37.07 14.99 38.54 14.99C39.59 14.99 40.29 14.50 40.61 13.62C40.60 13.96 40.60 14.42 40.60 14.67C40.60 16.39 40.01 17.58 38.84 17.58C38.15 17.58 37.88 17.18 37.88 16.66C37.88 16.30 38.02 15.95 38.30 15.69C38.14 15.48 37.83 15.37 37.42 15.37C36.65 15.37 36.11 15.83 36.11 16.55C36.11 17.71 37.37 18.16 38.78 18.16ZM39.13 14.11C38.33 14.11 38.09 13.50 38.09 11.73C38.09 9.52 38.39 8.23 39.61 8.23C39.98 8.23 40.36 8.34 40.60 8.53L40.59 11.54C40.57 13.16 40.08 14.11 39.13 14.11ZM50.90 13.55C50.81 13.69 50.62 13.73 50.53 13.73C50.22 13.73 50.06 13.48 50.06 12.99L50.06 10.63C50.06 8.44 49.13 7.59 47.04 7.59C45.21 7.59 44.03 8.20 44.03 9.32C44.03 10.05 44.55 10.63 45.46 10.63C45.86 10.63 46.26 10.51 46.48 10.29C46.09 10.07 45.99 9.63 45.99 9.25C45.99 8.51 46.38 8.22 46.93 8.22C47.81 8.22 48.09 8.99 48.09 10.50L48.09 10.85C47.56 10.88 46.89 10.93 46.14 11.14C44.98 11.48 43.69 12.17 43.69 13.51C43.69 14.59 44.48 15.16 45.54 15.16C46.83 15.16 47.74 14.38 48.23 13.33C48.34 14.69 48.90 15.16 49.76 15.16C50.58 15.16 51.09 14.70 51.09 14.15C51.09 13.99 51.03 13.75 50.90 13.55ZM46.55 13.92C46.02 13.97 45.81 13.51 45.81 13.03C45.81 12.47 46.13 12.03 46.58 11.77C47.01 11.52 47.60 11.47 48.15 11.47C48.15 12.84 47.26 13.85 46.55 13.92Z"></path></g><!----><!----></svg>